<?xml version="1.0" standalone="no"?><!DOCTYPE svg PUBLIC "-//W3C//DTD SVG 1.1//EN" "http://www.w3.org/Graphics/SVG/1.1/DTD/svg11.dtd"><svg t="1766150028266" class="icon" viewBox="0 0 1024 1024" version="1.1" xmlns="http://www.w3.org/2000/svg" p-id="12287" xmlns:xlink="http://www.w3.org/1999/xlink" width="200" height="200"><path d="M880.1792 850.3808H143.8208a28.8256 28.8256 0 0 0-28.7232 28.7232 28.8256 28.8256 0 0 0 28.7232 28.7232h736.3584a28.8256 28.8256 0 0 0 28.7232-28.7232 28.8256 28.8256 0 0 0-28.7232-28.7232zM162.7648 794.368h90.112a33.8944 33.8944 0 0 0 33.792-33.792V549.376a33.8944 33.8944 0 0 0-33.792-33.792h-90.112a33.8944 33.8944 0 0 0-33.792 33.792v211.2a33.8944 33.8944 0 0 0 33.792 33.792z m18.0224-226.9696h54.0672V742.4H180.7872zM567.6032 794.368h90.112a33.8944 33.8944 0 0 0 33.792-33.792V419.2768a33.8944 33.8944 0 0 0-33.792-33.792h-90.112a33.8944 33.8944 0 0 0-33.792 33.792v341.2992a33.8944 33.8944 0 0 0 33.792 33.792z m18.0224-357.0688h54.0672V742.4h-54.0672zM365.1584 794.368h90.112a33.8944 33.8944 0 0 0 33.792-33.792v-476.16a33.8944 33.8944 0 0 0-33.792-33.792h-90.112a33.8944 33.8944 0 0 0-33.792 33.792v476.16a33.8944 33.8944 0 0 0 33.792 33.792z m18.0224-491.52H437.248V742.4H383.1808zM769.9968 794.368H860.16a33.8944 33.8944 0 0 0 33.792-33.792V146.9952a33.8944 33.8944 0 0 0-33.792-33.792h-90.112a33.9456 33.9456 0 0 0-33.792 33.792v613.5808a33.9456 33.9456 0 0 0 33.7408 33.792z m18.0224-629.3504h54.0672V742.4h-54.0672z" fill="#000000" p-id="12288"></path></svg>