<?xml version="1.0" standalone="no"?><!DOCTYPE svg PUBLIC "-//W3C//DTD SVG 1.1//EN" "http://www.w3.org/Graphics/SVG/1.1/DTD/svg11.dtd"><svg t="1766150155854" class="icon" viewBox="0 0 1024 1024" version="1.1" xmlns="http://www.w3.org/2000/svg" p-id="24331" xmlns:xlink="http://www.w3.org/1999/xlink" width="200" height="200"><path d="M711.8848 969.9328H404.2752c-50.3808 0-97.0752-27.0336-122.2656-70.656L128.2048 632.832c-24.9856-43.6224-24.9856-97.4848 0-141.1072L282.0096 225.28c25.1904-43.6224 71.8848-70.4512 122.2656-70.656h307.8144c18.8416 0 34.2016 15.36 34.2016 34.2016s-15.36 34.2016-34.2016 34.2016H404.2752c-26.0096 0-50.176 13.9264-63.0784 36.4544l-153.8048 266.24c-12.9024 22.528-12.9024 50.3808 0 72.9088l153.8048 266.4448c13.1072 22.528 37.0688 36.4544 63.0784 36.4544h307.8144c26.0096 0 50.176-13.9264 63.0784-36.4544l153.8048-266.4448c12.9024-22.528 12.9024-50.3808 0-72.9088l-117.3504-203.1616c-9.4208-16.384-3.6864-37.2736 12.4928-46.6944 16.384-9.4208 37.2736-3.6864 46.6944 12.4928l117.3504 203.3664c24.9856 43.6224 24.9856 97.4848 0 141.1072l-153.8048 266.4448c-25.6 43.6224-72.0896 70.4512-122.4704 70.656z" fill="#BAC3D2" p-id="24332"></path><path d="M558.08 725.6064c-90.112 0-163.4304-73.3184-163.4304-163.4304s73.3184-163.2256 163.4304-163.2256 163.4304 73.3184 163.4304 163.2256-73.3184 163.4304-163.4304 163.4304z m0-258.4576c-52.4288 0-95.0272 42.5984-95.0272 95.0272 0 52.4288 42.5984 95.0272 95.0272 95.0272 52.4288 0 95.0272-42.5984 95.0272-95.0272s-42.5984-95.0272-95.0272-95.0272z" fill="#01C694" p-id="24333"></path></svg>